<?xml version="1.0" standalone="no"?>
<!DOCTYPE svg PUBLIC "-//W3C//DTD SVG 20010904//EN"
 "http://www.w3.org/TR/2001/REC-SVG-20010904/DTD/svg10.dtd">
<svg version="1.0" xmlns="http://www.w3.org/2000/svg"
 width="476.000000pt" height="476.000000pt" viewBox="0 0 476.000000 476.000000"
 preserveAspectRatio="xMidYMid meet">
<metadata>
Created by potrace 1.11, written by Peter Selinger 2001-2013
</metadata>
<g transform="translate(0.000000,476.000000) scale(0.100000,-0.100000)"
fill="#000000" stroke="none">
<path d="M2510 3731 c0 -3 -68 -5 -152 -4 -90 1 -159 -2 -171 -9 -15 -8 -18
-7 -11 4 6 11 5 11 -9 -1 -12 -9 -17 -10 -17 -2 0 8 -5 9 -19 1 -12 -6 -22 -6
-25 -1 -4 6 -21 5 -43 -1 -20 -5 -47 -8 -59 -5 -14 2 -24 -1 -24 -7 0 -6 -5
-4 -10 4 -5 8 -10 10 -10 4 0 -6 -16 -10 -35 -9 -20 1 -33 -1 -29 -4 3 -3 8
-5 10 -3 3 2 16 -3 29 -12 18 -12 25 -12 28 -3 4 8 6 8 6 -2 1 -11 4 -11 16
-1 12 10 19 10 27 2 7 -7 30 -12 52 -12 23 0 48 -4 56 -10 9 -5 19 -5 26 1 9
7 16 5 23 -8 8 -14 10 -15 11 -3 0 13 1 13 10 0 8 -12 10 -12 10 -1 0 11 3 11
14 1 8 -6 23 -10 33 -8 10 1 23 -1 29 -4 6 -4 25 -9 43 -10 17 -1 31 -5 31 -8
0 -14 114 -14 118 -1 2 7 14 8 29 5 18 -5 24 -3 19 4 -4 8 -2 10 8 6 8 -3 24
0 36 6 17 9 21 9 15 0 -6 -9 -2 -9 14 -1 12 7 26 9 31 6 6 -3 10 -2 10 2 0 5
21 10 48 11 65 3 72 4 72 12 0 4 11 5 25 2 14 -2 32 1 40 8 12 10 15 10 15 -1
0 -10 2 -11 8 -2 5 8 13 9 22 3 16 -10 50 5 50 23 0 7 -3 8 -8 2 -10 -14 -32
-17 -32 -4 0 5 -3 8 -7 6 -5 -3 -32 -1 -60 2 -29 4 -54 4 -55 -1 -2 -4 -15 -1
-30 7 -18 8 -28 10 -28 3 0 -7 -6 -6 -15 2 -8 7 -15 8 -15 3 0 -10 -41 -10
-58 1 -7 4 -12 2 -12 -5 0 -8 -4 -8 -12 -2 -15 12 -68 23 -68 14z"/>
<path d="M1355 3600 c-4 -6 -16 -10 -26 -7 -10 3 -19 1 -21 -4 -2 -5 -16 -12
-33 -15 -16 -3 -36 -11 -44 -17 -12 -10 -13 -9 -6 3 7 12 6 13 -6 3 -9 -7 -26
-14 -40 -16 -13 -2 -22 -8 -19 -13 3 -5 8 -8 13 -6 4 1 7 -2 7 -8 0 -5 11 -10
25 -10 14 0 25 -3 25 -7 0 -5 14 -9 32 -10 17 -1 34 -6 37 -10 3 -5 15 -10 26
-11 11 -2 24 -8 30 -13 5 -5 19 -9 31 -9 12 0 24 -5 26 -10 2 -6 13 -12 26
-13 12 0 22 -4 22 -8 0 -4 7 -10 16 -13 10 -4 13 -2 8 7 -4 6 5 1 19 -12 15
-14 27 -20 27 -15 0 5 4 5 8 -1 4 -5 18 -16 31 -23 19 -11 22 -11 15 0 -4 7 4
3 18 -9 13 -13 30 -23 36 -23 7 0 12 -4 12 -10 0 -5 5 -10 11 -10 5 0 7 5 3
12 -4 7 -3 8 4 4 11 -7 44 8 70 32 16 14 26 16 17 2 -3 -6 1 -7 9 -4 9 3 13
10 10 15 -5 8 9 13 29 10 4 0 7 4 7 10 0 6 7 9 15 5 8 -3 15 -1 15 5 0 6 5 7
10 4 6 -3 10 -1 10 5 0 6 5 8 10 5 6 -3 10 -1 10 6 0 7 3 9 6 6 4 -4 20 3 35
14 16 11 29 18 29 14 0 -3 18 4 40 15 22 11 40 18 40 15 0 -3 9 -1 21 5 11 6
28 13 37 15 38 7 47 10 52 17 3 4 15 9 25 11 29 4 46 17 39 28 -4 6 -11 6 -19
-1 -8 -7 -14 -7 -17 -1 -1 6 -20 11 -40 13 -21 1 -38 7 -38 13 0 5 -5 3 -10
-5 -5 -8 -10 -10 -10 -4 0 5 -19 11 -42 13 -57 3 -76 6 -84 14 -4 3 -15 2 -25
-4 -12 -6 -19 -6 -19 0 0 15 -506 15 -515 0 -6 -8 -9 -8 -15 1 -6 9 -9 9 -15
0z"/>
<path d="M2831 3601 c-7 -5 -29 -8 -47 -7 -19 1 -34 -3 -34 -8 0 -5 -3 -7 -6
-3 -3 3 -17 2 -30 -3 -17 -7 -24 -6 -24 3 0 8 -4 7 -10 -3 -5 -8 -10 -11 -10
-7 0 4 -10 3 -21 -4 -16 -8 -20 -8 -14 1 6 9 2 9 -15 0 -16 -8 -19 -15 -11
-23 9 -9 19 -12 64 -16 5 -1 6 -5 3 -9 -3 -5 9 -9 27 -10 17 0 37 -8 44 -18
10 -14 13 -14 13 -3 0 12 2 12 10 -1 5 -8 10 -10 10 -5 0 6 5 2 11 -8 6 -9 14
-15 19 -12 5 3 29 -4 52 -17 24 -12 50 -22 58 -22 8 0 19 -6 23 -13 5 -8 12
-11 18 -8 5 4 9 2 9 -3 0 -8 25 -20 52 -26 3 0 17 -10 30 -22 13 -11 29 -19
36 -16 7 2 12 -1 12 -8 0 -6 5 -8 10 -5 6 3 10 2 10 -2 0 -15 41 -13 64 3 13
8 26 11 31 7 4 -5 5 -3 2 3 -7 11 33 34 59 34 8 0 13 4 10 9 -3 5 5 12 19 15
14 4 25 11 25 17 0 6 4 8 9 4 6 -3 26 4 46 15 20 11 40 18 46 15 5 -4 9 -1 9
5 0 6 5 8 10 5 6 -3 10 -1 10 5 0 6 4 9 9 6 5 -3 14 1 21 10 10 12 15 12 21 2
6 -9 9 -8 14 4 4 9 13 14 21 11 8 -3 14 0 14 5 0 6 8 9 18 7 10 -1 29 3 42 11
19 10 21 13 8 14 -10 0 -18 4 -18 8 0 4 -12 9 -26 10 -15 1 -32 6 -39 12 -12
10 -18 11 -92 25 -24 4 -43 11 -43 16 0 11 -492 12 -522 0 -15 -6 -29 -6 -34
-1 -5 5 -15 5 -23 1z"/>
<path d="M2315 3498 c-4 -9 -13 -14 -21 -11 -8 3 -14 1 -14 -4 0 -5 -12 -10
-26 -11 -15 -1 -32 -6 -39 -12 -6 -5 -15 -7 -18 -3 -4 3 -7 1 -7 -5 0 -6 -7
-9 -16 -5 -9 3 -19 1 -23 -6 -4 -7 -17 -13 -29 -14 -12 0 -24 -7 -26 -14 -3
-7 -11 -13 -18 -13 -9 0 -8 3 2 10 8 5 10 10 4 10 -5 0 -20 -9 -31 -19 -12
-11 -24 -17 -28 -13 -4 4 -12 0 -18 -8 -7 -8 -16 -15 -22 -16 -23 -3 -55 -17
-55 -25 0 -5 -9 -9 -20 -9 -11 0 -20 -4 -20 -10 0 -5 -9 -10 -20 -10 -11 0
-23 -7 -26 -15 -4 -8 -10 -12 -15 -9 -6 3 -21 -2 -35 -10 -20 -14 -23 -20 -13
-37 6 -11 13 -19 15 -16 5 5 23 -10 121 -101 35 -32 65 -57 67 -55 2 3 7 -5
11 -16 3 -12 12 -21 19 -21 7 0 19 -11 26 -25 7 -13 17 -22 22 -19 7 5 9 0 8
-21 -1 -10 25 -33 32 -29 3 2 12 -9 19 -25 7 -16 17 -27 21 -25 4 3 8 -4 8
-16 0 -12 5 -18 10 -15 6 3 10 1 10 -5 0 -6 7 -18 15 -27 8 -8 12 -19 9 -25
-4 -7 -2 -8 4 -4 7 4 12 1 12 -8 0 -9 5 -16 11 -16 5 0 7 -4 4 -10 -3 -5 -1
-10 5 -10 6 0 8 -4 5 -10 -3 -5 -1 -10 5 -10 6 0 8 -4 5 -10 -3 -5 -1 -10 6
-10 7 0 10 -3 6 -6 -3 -4 4 -15 16 -26 12 -11 16 -16 9 -13 -11 6 -11 3 0 -16
7 -13 18 -27 23 -31 6 -4 7 -8 3 -8 -4 0 1 -19 12 -42 10 -23 16 -46 14 -50
-3 -4 0 -8 7 -8 6 0 9 -8 6 -19 -7 -27 29 -43 89 -39 40 2 48 6 46 21 -2 9 2
17 7 17 6 0 8 7 4 15 -3 9 3 25 12 35 10 11 15 23 12 26 -4 4 2 19 13 34 11
15 17 30 13 34 -3 3 -1 6 6 6 7 0 9 5 6 10 -3 6 -1 10 5 10 6 0 8 5 5 10 -3 6
-1 10 5 10 6 0 8 5 5 10 -3 6 -1 10 4 10 6 0 10 3 9 8 -3 14 25 61 33 56 5 -3
6 2 3 10 -3 9 -2 16 2 16 5 0 22 23 38 50 16 27 34 46 39 43 6 -3 7 -2 4 4 -3
5 5 21 19 36 14 15 23 27 20 27 -3 0 11 16 30 36 19 20 34 41 34 46 0 5 3 7 8
5 9 -5 42 30 35 37 -4 3 1 6 10 6 9 0 19 5 23 12 5 7 2 9 -7 4 -8 -4 -5 -1 5
8 11 9 33 28 50 43 17 15 34 28 37 28 3 0 13 8 23 18 10 9 22 17 27 17 6 0 7
5 4 10 -3 6 -1 10 6 10 7 0 3 9 -9 20 -12 11 -27 20 -34 20 -8 0 -20 9 -28 20
-10 14 -16 16 -22 7 -6 -9 -8 -9 -8 1 0 6 -7 12 -15 12 -8 0 -15 5 -15 10 0 6
-11 10 -25 10 -14 0 -25 5 -25 10 0 6 -9 10 -20 10 -11 0 -20 5 -20 10 0 6 -9
10 -20 10 -11 0 -20 4 -20 8 0 5 -29 19 -65 31 -36 13 -65 28 -65 35 0 7 -4 6
-9 -3 -6 -9 -11 -10 -15 -2 -4 6 -16 11 -27 11 -10 0 -19 5 -19 11 0 6 -9 9
-20 6 -11 -3 -20 -1 -20 5 0 5 -4 7 -9 3 -5 -3 -12 -1 -16 5 -3 5 -17 10 -31
10 -13 0 -24 4 -24 8 0 14 -93 14 -102 0 -6 -10 -10 -10 -17 2 -9 12 -11 12
-16 -2z"/>
<path d="M965 3460 c-3 -4 -13 -7 -23 -6 -9 2 -20 -2 -24 -8 -4 -6 -13 -11
-20 -11 -17 -1 -92 -38 -96 -48 -2 -4 -8 -5 -13 -1 -5 3 -9 0 -9 -6 0 -6 -4
-8 -10 -5 -5 3 -10 1 -10 -4 0 -6 -3 -10 -7 -9 -10 3 -121 -61 -129 -73 -3 -5
-10 -7 -15 -4 -5 4 -9 -1 -9 -10 0 -9 -4 -14 -9 -10 -5 3 -16 -2 -24 -10 -9
-8 -19 -15 -23 -15 -4 0 -13 -8 -21 -17 -10 -12 -12 -13 -8 -3 4 10 2 9 -8 -2
-8 -10 -17 -18 -20 -18 -3 0 -20 -13 -38 -30 -18 -16 -37 -26 -42 -23 -6 3 -8
2 -5 -3 6 -11 -28 -45 -36 -36 -3 3 -6 -2 -6 -11 0 -10 -3 -16 -7 -15 -5 2 -8
0 -8 -4 0 -4 -15 -19 -34 -33 -19 -14 -32 -25 -28 -25 4 0 2 -6 -5 -14 -7 -8
-16 -12 -20 -9 -5 2 -8 0 -8 -5 0 -5 -11 -22 -25 -38 -51 -60 -62 -76 -96
-141 -9 -18 -20 -29 -24 -25 -4 4 -4 -3 -1 -15 4 -13 2 -25 -6 -30 -17 -10
-42 -63 -41 -85 0 -10 -4 -18 -8 -18 -5 0 -8 -3 -7 -7 2 -12 -12 -66 -22 -85
-6 -11 -5 -18 2 -20 7 -3 8 -9 3 -19 -15 -22 -13 -33 7 -51 10 -10 18 -15 18
-10 0 4 36 5 80 2 44 -3 80 -3 80 0 0 3 32 3 70 0 39 -3 70 -2 70 2 0 3 14 3
30 -2 17 -5 30 -6 30 -2 0 4 40 5 90 2 50 -3 90 -2 90 2 0 4 14 3 30 -2 17 -5
30 -6 30 -2 0 4 40 5 89 2 81 -5 91 -3 102 15 7 11 12 23 11 28 -1 4 3 7 9 7
5 0 7 5 4 10 -3 6 -1 10 5 10 6 0 8 5 5 10 -3 6 -1 10 5 10 6 0 8 5 5 10 -3 6
1 13 9 16 9 3 13 10 10 15 -3 5 0 9 6 9 6 0 8 5 5 10 -3 6 -1 10 4 10 6 0 11
6 11 14 0 7 7 19 15 26 8 7 12 16 10 21 -3 4 4 13 15 19 11 6 18 15 15 21 -4
5 -1 9 6 9 7 0 10 3 6 6 -3 3 2 14 11 23 32 33 97 116 96 121 -1 3 7 13 17 23
11 9 19 14 19 10 0 -3 9 4 20 17 11 13 20 28 20 33 0 6 3 8 6 4 4 -3 22 12 40
34 19 23 34 38 34 34 0 -4 10 4 21 19 12 15 23 25 26 23 2 -3 22 13 43 35 22
21 40 36 40 33 0 -3 10 3 22 15 12 11 26 20 30 20 5 0 20 12 33 26 13 14 26
25 29 25 20 -3 26 0 21 9 -3 6 1 10 9 10 10 0 13 6 10 15 -4 8 -15 15 -25 15
-10 0 -19 3 -19 8 0 4 -9 13 -21 20 -12 8 -19 9 -16 4 4 -5 -13 1 -37 12 -24
12 -42 24 -40 27 2 4 -8 7 -23 7 -14 0 -30 7 -35 16 -5 9 -14 14 -19 10 -5 -3
-21 2 -34 10 -17 11 -25 13 -25 5 0 -8 -7 -6 -18 4 -10 10 -28 17 -40 17 -12
0 -22 6 -22 13 0 8 -4 7 -10 -3 -6 -10 -10 -11 -10 -2 0 6 -11 12 -25 12 -14
0 -25 4 -25 8 0 9 -3 10 -57 13 -18 1 -33 5 -33 8 0 10 -39 11 -45 1z"/>
<path d="M3730 3458 c0 -4 -14 -8 -31 -8 -16 0 -28 -4 -25 -9 3 -4 -6 -7 -19
-5 -14 1 -23 -2 -19 -7 3 -5 -6 -9 -20 -9 -14 0 -26 -4 -26 -8 0 -5 -7 -9 -15
-10 -8 -1 -22 -3 -30 -4 -8 -1 -15 -5 -15 -10 0 -5 -4 -6 -10 -3 -5 3 -10 1
-10 -4 0 -6 -9 -11 -20 -11 -11 0 -20 -5 -20 -11 0 -6 -7 -9 -15 -5 -8 3 -15
1 -15 -5 0 -6 -5 -7 -10 -4 -6 3 -13 -1 -16 -9 -3 -9 -10 -13 -15 -10 -5 3 -9
1 -9 -5 0 -6 -7 -8 -15 -5 -8 4 -15 1 -15 -7 0 -7 -3 -9 -6 -6 -4 3 -18 -3
-32 -13 -13 -11 -30 -20 -37 -20 -7 0 -16 -7 -19 -17 -8 -20 30 -63 56 -63 10
0 18 -7 18 -16 0 -8 4 -13 9 -10 5 4 11 3 13 -1 2 -5 16 -19 33 -33 22 -19 26
-20 15 -5 -14 19 -14 19 3 6 9 -7 17 -19 17 -25 0 -6 18 -22 40 -36 22 -14 40
-30 40 -37 0 -6 9 -15 20 -18 11 -3 20 -12 20 -20 0 -8 9 -17 21 -20 11 -4 19
-9 17 -11 -3 -2 17 -27 44 -54 27 -28 46 -55 43 -61 -4 -5 -3 -9 2 -8 17 3 33
-1 31 -8 -3 -16 15 -43 28 -43 8 0 14 -6 14 -13 0 -7 8 -22 18 -33 10 -10 19
-22 20 -26 7 -21 38 -68 45 -68 5 0 5 -4 2 -10 -3 -5 -1 -10 4 -10 6 0 11 -5
11 -10 0 -6 11 -28 24 -49 14 -21 22 -42 19 -45 -4 -3 -1 -6 6 -6 7 0 10 -4 6
-9 -3 -5 1 -16 9 -24 8 -8 13 -17 10 -20 -6 -6 26 -12 94 -20 17 -2 32 -1 32
2 0 4 32 4 70 1 39 -3 70 -2 70 2 0 3 14 3 30 -2 17 -5 30 -6 30 -2 0 4 40 5
90 2 50 -3 90 -2 90 2 0 4 14 3 30 -2 17 -5 30 -6 30 -2 0 4 40 5 90 2 50 -3
90 -3 90 0 0 3 19 4 41 2 39 -4 42 -3 36 17 -3 11 -1 21 4 21 6 0 5 8 -1 20
-8 15 -8 20 1 20 8 0 9 4 0 13 -6 8 -8 17 -4 20 3 4 2 7 -3 7 -5 0 -11 14 -12
32 -2 18 -10 40 -19 50 -13 14 -13 18 -2 18 12 0 12 2 0 9 -7 5 -10 14 -7 20
4 6 3 11 -2 11 -5 0 -15 14 -22 30 -7 17 -16 30 -21 30 -5 0 -6 6 -3 13 2 7
-6 26 -20 42 -14 16 -23 32 -20 37 3 4 -2 11 -10 14 -9 3 -16 12 -16 20 0 8
-4 14 -10 14 -5 0 -10 7 -10 16 0 8 -4 13 -9 10 -5 -3 -14 8 -21 24 -7 16 -15
28 -19 27 -9 -4 -60 51 -53 57 3 4 -3 6 -13 6 -10 0 -16 2 -13 5 6 6 -59 75
-71 75 -3 0 -19 13 -36 28 -39 36 -121 92 -135 92 -6 0 -13 7 -16 15 -3 8 -15
17 -25 20 -11 4 -29 16 -41 28 -11 12 -17 15 -12 7 4 -8 -5 -5 -20 8 -16 12
-34 22 -42 22 -7 0 -14 5 -16 10 -2 6 -13 12 -25 13 -13 0 -25 7 -28 15 -3 7
-9 10 -15 7 -5 -3 -10 -1 -10 5 0 6 -4 8 -10 5 -5 -3 -10 -1 -10 4 0 6 -3 11
-7 10 -17 -2 -52 14 -48 22 3 4 -3 6 -15 4 -11 -2 -22 1 -25 6 -4 5 -11 7 -16
4 -5 -4 -9 -1 -9 5 0 6 -16 10 -40 8 -22 -1 -40 -6 -40 -10z"/>
<path d="M1625 3167 c-22 -12 -49 -32 -60 -43 -20 -21 -25 -24 -46 -24 -5 0
-7 -4 -4 -10 3 -5 2 -10 -4 -10 -5 0 -20 -9 -33 -20 -63 -54 -84 -70 -91 -70
-5 0 -6 -3 -4 -7 3 -5 -13 -21 -34 -38 -21 -16 -41 -38 -44 -48 -4 -9 -10 -15
-15 -12 -5 3 -12 -4 -15 -16 -4 -11 -9 -18 -12 -15 -5 5 -60 -55 -55 -61 4 -6
-23 -31 -29 -27 -4 2 -10 -7 -13 -21 -4 -14 -10 -24 -14 -22 -4 1 -8 -2 -9 -6
-1 -5 -18 -28 -38 -53 -21 -25 -35 -47 -32 -50 3 -3 -6 -17 -19 -31 -13 -14
-24 -32 -24 -39 0 -8 -5 -14 -11 -14 -5 0 -8 -4 -5 -9 3 -5 -1 -12 -10 -15 -8
-3 -12 -10 -9 -16 3 -5 1 -10 -5 -10 -7 0 -7 -7 1 -22 7 -13 14 -18 16 -13 2
6 34 8 83 5 44 -3 80 -3 80 0 0 3 32 3 70 0 39 -3 70 -2 70 2 0 3 14 3 30 -2
17 -5 30 -6 30 -2 0 4 40 5 90 2 50 -3 90 -2 90 2 0 4 14 3 30 -2 17 -5 30 -6
30 -2 0 4 40 5 90 2 50 -3 90 -2 90 2 0 4 14 3 30 -2 17 -5 30 -5 30 -1 0 4
27 4 60 1 33 -3 60 -3 60 0 0 3 36 3 80 0 44 -3 80 -3 80 0 0 3 26 4 58 2 52
-3 58 -2 59 17 1 12 -2 21 -8 21 -5 0 -9 9 -9 20 0 11 -4 20 -9 20 -7 0 -21
47 -20 66 0 3 -7 11 -16 18 -9 6 -15 16 -13 22 2 5 -7 20 -19 33 -12 13 -20
27 -18 31 2 4 -9 22 -25 40 -17 19 -28 35 -26 38 3 2 -5 15 -17 28 -37 40 -47
53 -47 64 0 6 -3 9 -7 7 -5 -3 -14 1 -21 9 -7 8 -10 14 -7 14 3 0 0 6 -7 14
-7 8 -16 12 -21 9 -4 -2 -7 -1 -6 4 4 15 -13 43 -26 43 -8 0 -17 9 -20 20 -3
11 -11 20 -16 20 -6 0 -16 6 -24 13 -7 6 -21 20 -31 29 -11 9 -25 24 -32 33
-7 8 -18 12 -24 9 -7 -4 -8 -2 -4 4 7 11 -6 17 -27 13 -5 -1 -6 2 -4 6 3 5 -1
14 -9 21 -8 7 -14 9 -14 5 -1 -4 -10 3 -20 16 -11 13 -20 19 -20 15 0 -5 -4
-4 -8 3 -5 9 -18 6 -47 -10z"/>
<path d="M3130 3160 c0 -5 -11 -12 -25 -16 -14 -3 -23 -9 -20 -14 2 -4 -7 -12
-20 -18 -14 -7 -25 -16 -25 -22 0 -6 -4 -9 -8 -6 -5 3 -15 -6 -22 -19 -7 -13
-17 -22 -22 -19 -4 3 -11 -2 -14 -10 -3 -9 -13 -16 -21 -16 -8 0 -11 -4 -8
-10 3 -5 1 -10 -5 -10 -6 0 -9 -3 -7 -7 2 -5 -4 -16 -15 -25 -10 -10 -18 -15
-18 -10 0 4 -8 -5 -18 -21 -10 -15 -21 -25 -24 -22 -3 3 -9 -6 -12 -21 -4 -14
-10 -24 -13 -21 -6 7 -53 -58 -53 -74 0 -6 -4 -8 -9 -5 -8 5 -29 -31 -27 -46
0 -4 -9 -15 -21 -23 -13 -9 -23 -22 -23 -28 0 -7 4 -6 10 3 7 10 10 11 10 2 0
-7 -7 -15 -15 -18 -8 -4 -15 -12 -15 -20 0 -8 -5 -14 -11 -14 -6 0 -9 -6 -6
-14 3 -8 -1 -17 -9 -20 -9 -3 -12 -10 -9 -16 3 -5 1 -10 -4 -10 -6 0 -10 -3
-10 -7 1 -5 1 -10 -1 -13 -1 -3 -4 -16 -6 -30 -3 -14 -9 -26 -14 -28 -6 -2
-10 -12 -10 -23 0 -10 -5 -19 -12 -19 -6 0 -8 -3 -4 -7 10 -10 156 -20 156
-11 0 4 14 3 30 -2 17 -5 30 -5 30 -1 0 4 27 4 60 1 33 -3 60 -3 60 0 0 3 36
3 80 0 44 -3 80 -3 80 0 0 3 32 3 70 0 39 -3 70 -2 70 2 0 3 14 3 30 -2 17 -5
30 -6 30 -2 0 4 40 5 90 2 50 -3 90 -2 90 2 0 4 14 3 30 -2 17 -5 30 -6 30 -2
0 4 40 5 90 2 50 -3 90 -2 90 2 0 4 14 3 30 -2 20 -6 30 -5 30 2 0 7 4 7 13
-1 21 -17 15 24 -8 49 -10 11 -14 20 -9 20 5 0 5 4 -1 8 -5 4 -21 27 -34 52
-14 25 -33 53 -44 63 -14 11 -16 17 -6 17 8 0 4 6 -9 16 -12 8 -22 22 -22 30
0 8 -4 12 -10 9 -5 -3 -10 -1 -10 5 0 6 -6 17 -12 25 -31 32 -46 54 -41 59 4
3 -1 6 -10 6 -9 0 -17 7 -17 17 0 9 -3 13 -6 10 -4 -4 -15 3 -26 16 -25 30
-109 117 -113 117 -2 0 -20 16 -39 35 -20 19 -41 35 -46 35 -6 0 -10 7 -10 15
0 8 -7 15 -15 15 -9 0 -18 7 -21 15 -4 8 -10 12 -15 9 -5 -3 -9 0 -9 5 0 6 -7
11 -15 11 -7 0 -18 6 -22 13 -10 15 -58 47 -73 47 -5 0 -10 -4 -10 -10z"/>
<path d="M7 2293 c1 -21 5 -43 7 -50 3 -7 1 -13 -4 -13 -5 0 -5 -13 0 -30 5
-17 5 -30 0 -30 -5 0 -5 -13 0 -30 5 -17 5 -30 0 -30 -5 0 -5 -13 0 -30 6 -20
5 -30 -2 -30 -7 0 -7 -4 1 -13 6 -8 7 -17 3 -22 -4 -4 3 -2 16 4 15 8 22 8 22
1 0 -8 6 -8 20 0 14 8 20 8 20 0 0 -8 6 -8 20 0 11 6 20 7 20 3 0 -10 41 -10
58 1 7 4 12 2 12 -4 0 -6 5 -8 11 -5 16 10 59 13 59 5 0 -10 20 -8 38 3 7 5
12 3 12 -3 0 -6 5 -8 11 -5 16 10 59 13 59 5 0 -10 20 -8 38 3 7 5 12 3 12 -3
0 -7 7 -7 22 1 16 9 23 9 26 1 3 -9 9 -9 23 -2 13 8 19 7 19 0 0 -8 6 -8 20 0
14 8 20 8 20 0 0 -8 6 -8 20 0 12 6 20 7 20 1 0 -6 11 -6 30 -1 16 5 30 5 30
0 0 -10 19 -8 38 3 7 5 12 3 12 -3 0 -6 5 -8 11 -5 17 11 59 13 59 3 0 -5 9
-4 20 2 12 6 20 7 20 1 0 -10 19 -9 38 2 7 5 12 3 12 -3 0 -6 5 -8 11 -5 18
12 59 13 59 1 0 -6 5 -4 10 4 7 11 10 11 10 2 0 -10 5 -10 20 -2 14 8 20 8 20
0 0 -8 6 -8 20 0 14 8 20 8 20 0 0 -8 6 -8 20 0 11 6 20 7 20 3 0 -10 41 -10
58 1 7 4 12 2 12 -4 0 -6 5 -8 11 -5 16 10 59 13 59 5 0 -10 20 -8 38 3 7 5
12 3 12 -3 0 -6 5 -8 11 -5 16 10 59 13 59 5 0 -10 20 -8 38 3 7 5 12 3 12 -3
0 -7 7 -7 22 1 16 9 23 9 26 1 3 -9 9 -9 23 -2 13 8 19 7 19 0 0 -8 6 -8 20 0
14 8 20 8 20 0 0 -8 6 -8 20 0 12 6 20 7 20 1 0 -6 11 -6 30 -1 17 5 30 5 30
0 0 -10 19 -8 38 3 7 5 12 3 12 -3 0 -6 5 -8 11 -5 17 11 59 13 59 3 0 -5 9
-4 20 2 12 6 20 7 20 1 0 -10 19 -9 38 2 7 5 12 3 12 -3 0 -6 5 -8 11 -5 18
12 59 13 59 1 0 -6 5 -4 10 4 7 11 10 11 10 2 0 -10 5 -10 20 -2 14 8 20 8 20
0 0 -8 6 -8 20 0 14 8 20 8 20 0 0 -8 6 -8 20 0 11 6 20 7 20 3 0 -10 41 -10
58 1 7 4 12 2 12 -4 0 -6 5 -8 11 -5 16 10 59 13 59 5 0 -10 20 -8 38 3 7 5
12 3 12 -3 0 -6 5 -8 11 -5 16 10 59 13 59 5 0 -10 20 -8 38 3 7 5 12 3 12 -3
0 -7 7 -7 22 1 16 9 23 9 26 1 3 -9 9 -9 23 -2 13 8 19 7 19 0 0 -8 6 -8 20 0
14 8 20 8 20 0 0 -8 6 -8 20 0 14 8 20 8 20 0 0 -8 6 -8 20 0 14 8 20 8 20 0
0 -8 6 -8 20 0 14 8 20 8 20 0 0 -8 6 -8 20 0 14 8 20 8 20 0 0 -8 6 -8 20 0
11 6 20 7 20 3 0 -10 41 -10 58 1 7 4 12 2 12 -4 0 -6 5 -8 11 -5 16 10 59 13
59 5 0 -10 20 -8 38 3 7 5 12 3 12 -3 0 -6 5 -8 11 -5 16 10 59 13 59 5 0 -10
20 -8 38 3 7 5 12 3 12 -3 0 -7 7 -7 22 1 16 9 23 9 26 1 3 -9 9 -9 23 -2 13
8 19 7 19 0 0 -8 6 -8 20 0 14 8 20 8 20 0 0 -8 6 -8 20 0 12 6 20 7 20 1 0
-6 11 -6 30 -1 17 5 30 5 30 0 0 -10 19 -8 38 3 7 5 12 3 12 -3 0 -6 5 -8 11
-5 17 11 59 13 59 3 0 -5 9 -4 20 2 12 6 20 7 20 1 0 -10 19 -9 38 2 7 5 12 3
12 -3 0 -6 5 -8 11 -5 18 12 59 13 59 1 0 -6 5 -4 10 4 7 11 10 11 10 2 0 -10
5 -10 20 -2 14 8 20 8 20 0 0 -8 6 -8 20 0 14 8 20 8 20 0 0 -8 6 -8 20 0 11
6 20 7 20 3 0 -10 41 -10 58 1 7 4 12 2 12 -4 0 -6 5 -8 11 -5 16 10 59 13 59
5 0 -10 20 -8 37 3 8 5 13 3 13 -3 0 -6 5 -8 11 -5 16 10 59 13 59 5 0 -10 20
-8 38 3 7 5 12 3 12 -3 0 -7 7 -7 22 1 16 9 23 9 26 1 3 -9 9 -9 23 -2 13 8
19 7 19 0 0 -8 6 -8 20 0 14 8 20 8 20 0 0 -8 6 -8 20 0 12 6 20 7 20 1 0 -6
11 -6 30 -1 16 5 30 5 30 0 0 -10 19 -8 38 3 7 5 12 3 12 -3 0 -6 5 -8 11 -5
17 11 59 13 59 3 0 -5 9 -4 20 2 12 6 20 7 20 1 0 -10 19 -9 38 2 7 5 12 3 12
-3 0 -6 5 -8 11 -5 18 12 59 13 59 1 0 -6 5 -4 10 4 7 11 10 11 10 2 0 -10 5
-10 20 -2 14 8 20 8 20 0 0 -8 6 -8 20 0 14 8 20 8 20 0 0 -8 6 -8 20 0 11 6
20 7 20 3 0 -10 41 -10 58 1 7 4 12 2 12 -4 0 -6 5 -8 11 -4 18 11 53 11 61
-1 4 -5 8 63 8 153 l0 162 -2378 0 -2378 0 3 -37z"/>
<path d="M61 1901 c-7 -5 -22 -6 -34 -3 -16 4 -19 2 -14 -11 4 -10 2 -17 -3
-17 -5 0 -5 -13 0 -30 5 -17 5 -30 0 -30 -5 0 -5 -13 0 -30 5 -17 5 -30 0 -30
-5 0 -5 -13 0 -30 5 -17 5 -30 0 -30 -5 0 -5 -13 0 -30 5 -17 5 -30 0 -30 -5
0 -5 -13 0 -30 6 -21 5 -30 -3 -30 -7 0 -6 -4 3 -10 12 -8 12 -10 1 -10 -10 0
-11 -3 -2 -13 6 -8 7 -18 3 -23 -4 -4 0 -3 10 4 11 9 18 10 23 2 4 -7 12 -7
26 0 13 8 19 7 19 0 0 -7 6 -8 19 0 12 6 22 6 26 1 3 -6 17 -6 35 -1 18 5 32
5 35 -1 4 -5 14 -5 26 1 13 8 19 7 19 0 0 -7 6 -8 19 0 12 6 22 6 26 1 3 -6
17 -6 35 -1 18 5 32 5 35 -1 4 -5 14 -5 26 1 13 8 19 7 19 0 0 -7 6 -8 19 0
12 6 22 6 26 1 3 -6 17 -6 35 -1 18 5 32 5 35 -1 4 -5 14 -5 26 1 13 8 19 7
19 0 0 -7 6 -8 19 0 13 7 22 7 26 0 4 -7 12 -7 25 0 13 7 21 7 25 0 5 -8 11
-7 21 1 8 6 14 7 14 2 0 -5 9 -9 20 -9 11 0 20 3 20 6 0 3 9 6 20 6 11 0 20
-4 20 -9 0 -5 7 -4 15 3 8 7 15 9 15 4 0 -5 11 -9 25 -9 14 0 25 3 25 6 0 8
38 5 46 -4 4 -4 13 -2 21 4 7 6 13 7 13 2 0 -5 9 -9 20 -9 11 0 20 3 20 6 0 3
9 6 20 6 11 0 20 -4 20 -9 0 -5 7 -4 15 3 8 7 15 9 15 4 0 -5 11 -9 25 -9 14
0 25 3 25 6 0 8 38 5 46 -4 4 -4 13 -2 21 4 7 6 13 7 13 2 0 -5 9 -9 20 -9 11
0 20 3 20 6 0 3 9 6 20 6 11 0 20 -4 20 -9 0 -5 7 -4 15 3 8 7 15 9 15 4 0 -5
11 -9 25 -9 14 0 25 3 25 6 0 8 38 5 46 -4 4 -4 13 -2 21 4 7 6 13 7 13 2 0
-5 9 -9 20 -9 11 0 20 3 20 6 0 3 9 6 20 6 11 0 20 -4 20 -9 0 -5 7 -4 15 3 8
7 15 9 15 4 0 -5 11 -9 25 -9 14 0 25 3 25 6 0 8 38 5 46 -4 4 -4 13 -2 21 4
7 6 13 7 13 2 0 -5 9 -9 20 -9 11 0 20 3 20 6 0 3 9 6 20 6 11 0 20 -4 20 -9
0 -5 7 -4 15 3 8 7 15 9 15 4 0 -5 11 -9 25 -9 14 0 25 3 25 6 0 3 7 6 15 6 8
0 15 -5 15 -11 0 -7 3 -7 11 1 6 6 9 55 7 132 -2 66 1 121 5 121 5 0 6 4 3 8
-3 5 -6 36 -7 70 -2 56 -4 60 -21 51 -12 -7 -18 -6 -18 1 0 8 -6 8 -20 0 -14
-8 -20 -8 -20 0 0 8 -6 8 -20 0 -14 -8 -20 -8 -20 0 0 8 -6 8 -20 0 -14 -8
-20 -8 -20 0 0 8 -6 8 -20 0 -14 -8 -20 -8 -20 0 0 8 -6 8 -20 0 -12 -6 -20
-7 -20 -1 0 6 -11 6 -30 1 -17 -5 -30 -5 -30 0 0 10 -19 8 -37 -3 -8 -5 -13
-3 -13 3 0 6 -5 8 -11 5 -16 -10 -59 -13 -59 -5 0 10 -20 8 -37 -3 -8 -5 -13
-3 -13 3 0 6 -5 8 -11 5 -16 -10 -59 -13 -59 -5 0 10 -20 8 -37 -3 -8 -5 -13
-3 -13 3 0 6 -5 8 -11 5 -16 -10 -59 -13 -59 -5 0 10 -20 8 -37 -3 -8 -5 -13
-3 -13 3 0 6 -5 8 -11 5 -16 -10 -59 -13 -59 -5 0 10 -20 8 -37 -3 -8 -5 -13
-3 -13 3 0 6 -5 8 -11 5 -18 -12 -59 -13 -59 -1 0 6 -5 4 -10 -4 -7 -11 -10
-11 -10 -2 0 10 -5 10 -20 2 -14 -8 -20 -8 -20 0 0 8 -6 8 -20 0 -14 -8 -20
-8 -20 0 0 8 -6 8 -20 0 -14 -8 -20 -8 -20 0 0 8 -6 8 -20 0 -14 -8 -20 -8
-20 0 0 8 -6 8 -20 0 -14 -8 -20 -8 -20 0 0 8 -6 8 -20 0 -14 -8 -20 -8 -20 0
0 8 -6 8 -20 0 -12 -6 -20 -7 -20 -1 0 6 -11 6 -30 1 -16 -5 -30 -5 -30 0 0
10 -19 8 -37 -3 -8 -5 -13 -3 -13 3 0 6 -5 8 -11 5 -16 -10 -59 -13 -59 -5 0
10 -20 8 -37 -3 -8 -5 -13 -3 -13 3 0 6 -5 8 -11 5 -16 -10 -59 -13 -59 -5 0
10 -20 8 -37 -3 -8 -5 -13 -3 -13 3 0 6 -5 8 -11 5 -16 -10 -59 -13 -59 -5 0
10 -20 8 -37 -3 -8 -5 -13 -3 -13 3 0 6 -5 8 -11 5 -16 -10 -59 -13 -59 -5 0
9 -20 8 -37 -3 -6 -4 -13 -3 -15 3 -2 5 -9 6 -17 1z"/>
<path d="M2902 1881 c-7 -21 -7 -31 0 -33 8 -3 7 -11 -1 -26 -8 -15 -8 -22 -1
-22 6 0 8 -5 3 -12 -11 -19 -13 -38 -2 -38 5 0 5 -10 0 -23 -5 -13 -5 -30 -1
-37 5 -8 6 -19 2 -25 -11 -17 -11 -35 -1 -35 6 0 7 -5 3 -12 -4 -6 -7 -27 -6
-46 2 -41 28 -65 54 -51 12 7 18 6 18 -1 0 -7 6 -8 19 0 12 6 22 6 26 1 3 -6
17 -6 35 -1 18 5 32 5 35 -1 4 -5 14 -5 26 1 13 8 19 7 19 0 0 -7 6 -8 19 0
13 7 22 7 26 0 4 -7 12 -7 25 0 13 7 21 7 25 0 5 -8 11 -7 21 1 8 6 14 7 14 2
0 -5 9 -9 20 -9 11 0 20 3 20 6 0 3 9 6 20 6 11 0 20 -4 20 -9 0 -5 7 -4 15 3
8 7 15 9 15 4 0 -5 11 -9 25 -9 14 0 25 3 25 6 0 8 38 5 46 -4 4 -4 13 -2 21
4 7 6 13 7 13 2 0 -5 9 -9 20 -9 11 0 20 3 20 6 0 3 9 6 20 6 11 0 20 -4 20
-9 0 -5 7 -4 15 3 8 7 15 9 15 4 0 -5 11 -9 25 -9 14 0 25 3 25 6 0 8 38 5 46
-4 4 -4 13 -2 21 4 7 6 13 7 13 2 0 -5 9 -9 20 -9 11 0 20 3 20 6 0 3 9 6 20
6 11 0 20 -4 20 -9 0 -5 7 -4 15 3 8 7 15 9 15 4 0 -5 11 -9 25 -9 14 0 25 3
25 6 0 8 38 5 46 -4 4 -4 13 -2 21 4 7 6 13 7 13 2 0 -5 9 -9 20 -9 11 0 20 3
20 6 0 3 9 6 20 6 11 0 20 -4 20 -9 0 -5 7 -4 15 3 8 7 15 9 15 4 0 -5 11 -9
25 -9 14 0 25 3 25 6 0 8 38 5 46 -4 4 -4 13 -2 21 4 7 6 13 7 13 2 0 -5 9 -9
20 -9 11 0 20 3 20 6 0 3 9 6 20 6 11 0 20 -4 20 -9 0 -5 7 -4 15 3 8 7 15 9
15 4 0 -5 11 -9 25 -9 14 0 25 3 25 6 0 8 38 5 46 -4 4 -4 13 -2 21 4 9 8 13
8 13 1 0 -7 10 -8 30 -2 18 5 32 5 35 -1 4 -5 14 -5 26 1 13 8 19 7 19 0 0 -7
6 -8 19 0 14 7 22 7 26 0 5 -8 11 -7 21 1 11 9 14 9 14 0 0 -9 5 -9 20 -1 13
7 20 7 20 1 0 -7 9 -7 25 -1 17 6 25 6 25 -1 0 -6 5 -7 10 -4 6 4 10 80 10
197 0 165 -2 189 -15 184 -8 -3 -15 -1 -15 3 0 11 -19 9 -37 -2 -8 -5 -13 -3
-13 3 0 6 -5 8 -11 5 -16 -10 -59 -13 -59 -5 0 10 -20 8 -37 -3 -8 -5 -13 -3
-13 3 0 6 -5 8 -11 5 -18 -12 -59 -13 -59 -1 0 6 -5 4 -10 -4 -7 -11 -10 -11
-10 -2 0 10 -5 10 -20 2 -14 -8 -20 -8 -20 0 0 8 -6 8 -20 0 -14 -8 -20 -8
-20 0 0 8 -6 8 -20 0 -14 -8 -20 -8 -20 0 0 8 -6 8 -20 0 -14 -8 -20 -8 -20 0
0 8 -6 8 -20 0 -14 -8 -20 -8 -20 0 0 8 -6 8 -20 0 -14 -8 -20 -8 -20 0 0 8
-6 8 -20 0 -12 -6 -20 -7 -20 -1 0 6 -11 6 -30 1 -16 -5 -30 -5 -30 0 0 10
-19 8 -37 -3 -8 -5 -13 -3 -13 3 0 6 -5 8 -11 5 -16 -10 -59 -13 -59 -5 0 10
-20 8 -37 -3 -8 -5 -13 -3 -13 3 0 6 -5 8 -11 5 -16 -10 -59 -13 -59 -5 0 10
-20 8 -37 -3 -8 -5 -13 -3 -13 3 0 6 -5 8 -11 5 -16 -10 -59 -13 -59 -5 0 10
-20 8 -37 -3 -8 -5 -13 -3 -13 3 0 6 -5 8 -11 5 -16 -10 -59 -13 -59 -5 0 10
-20 8 -37 -3 -8 -5 -13 -3 -13 3 0 6 -5 8 -11 5 -18 -12 -59 -13 -59 -1 0 6
-5 4 -10 -4 -7 -11 -10 -11 -10 -2 0 10 -5 10 -20 2 -14 -8 -20 -8 -20 0 0 8
-6 8 -20 0 -14 -8 -20 -8 -20 0 0 8 -6 8 -20 0 -14 -8 -20 -8 -20 0 0 8 -6 8
-20 0 -14 -8 -20 -8 -20 0 0 8 -6 8 -20 0 -14 -8 -20 -8 -20 0 0 8 -6 8 -20 0
-14 -8 -20 -8 -20 0 0 8 -6 8 -20 0 -12 -6 -20 -7 -20 -1 0 6 -11 6 -30 1 -16
-5 -30 -5 -30 0 0 10 -19 8 -37 -3 -8 -5 -13 -3 -13 3 0 6 -5 8 -11 5 -16 -10
-59 -13 -59 -5 0 10 -20 8 -37 -3 -8 -5 -13 -3 -13 3 0 6 -5 8 -11 5 -16 -11
-59 -13 -59 -4 0 21 -19 7 -28 -20z"/>
<path d="M14 1396 c-7 -7 -8 -21 -3 -38 4 -16 4 -28 -1 -28 -5 0 -5 -13 0 -30
5 -17 5 -30 0 -30 -5 0 -5 -13 0 -30 5 -17 5 -30 0 -30 -5 0 -5 -13 0 -30 5
-17 5 -30 0 -30 -5 0 -5 -13 0 -30 5 -16 5 -30 1 -30 -4 0 -6 -13 -3 -30 l4
-30 930 0 930 0 -4 50 c-1 28 -1 50 2 50 3 0 3 54 0 120 -3 66 -1 121 3 123 5
1 -1 11 -12 21 -14 13 -21 15 -21 6 0 -10 -3 -10 -15 0 -12 10 -15 10 -15 0 0
-10 -3 -10 -14 -1 -10 8 -16 9 -21 1 -4 -6 -13 -7 -23 -2 -19 9 -59 8 -69 -1
-3 -4 -14 -2 -24 4 -14 7 -19 6 -19 -2 0 -7 -4 -8 -12 -2 -15 11 -28 11 -45 0
-8 -5 -13 -4 -13 3 0 7 -7 8 -17 3 -21 -10 -65 -9 -82 1 -6 4 -11 3 -11 -1 0
-5 -9 -9 -20 -9 -11 0 -20 4 -20 9 0 5 -6 5 -13 -2 -10 -8 -17 -7 -25 1 -9 9
-12 9 -12 -1 0 -11 -3 -11 -15 -1 -12 10 -15 10 -15 0 0 -10 -3 -10 -15 0 -12
10 -15 10 -15 0 0 -10 -3 -10 -15 0 -12 10 -15 10 -15 0 0 -10 -3 -10 -15 0
-12 10 -15 10 -15 0 0 -10 -3 -10 -15 0 -12 10 -15 10 -15 0 0 -10 -3 -10 -15
0 -12 10 -15 10 -15 0 0 -10 -3 -10 -15 0 -12 10 -15 10 -15 0 0 -9 -4 -9 -17
1 -17 14 -20 14 -40 -3 -9 -7 -13 -7 -13 1 0 8 -6 9 -17 4 -21 -10 -65 -9 -82
1 -6 4 -11 4 -11 -1 0 -4 -11 -8 -25 -8 -14 0 -25 4 -25 9 0 5 -7 3 -15 -4
-12 -10 -15 -10 -15 0 0 10 -3 10 -15 0 -12 -10 -15 -10 -15 0 0 10 -3 10 -15
0 -11 -9 -15 -9 -15 -1 0 8 -5 9 -18 2 -10 -5 -24 -6 -31 -2 -13 8 -59 6 -68
-3 -3 -3 -14 -1 -24 5 -14 7 -19 6 -19 -2 0 -8 -4 -8 -13 -1 -8 7 -18 7 -27 2
-9 -5 -19 -5 -27 2 -9 7 -13 7 -13 -2 0 -10 -3 -10 -15 0 -11 9 -15 9 -15 1 0
-8 -6 -9 -17 -3 -22 10 -144 9 -161 -2 -7 -4 -12 -2 -12 5 0 8 -4 8 -15 -1
-10 -8 -15 -9 -15 -1 0 7 -8 8 -24 1 -15 -5 -27 -5 -35 3 -8 8 -11 8 -11 -2 0
-11 -3 -11 -15 -1 -11 9 -15 9 -15 1 0 -8 -6 -9 -17 -3 -22 10 -144 9 -161 -2
-7 -4 -12 -2 -12 5 0 9 -3 9 -14 0 -8 -7 -16 -8 -18 -3 -1 5 -8 4 -14 -2z"/>
<path d="M2904 1388 c2 -10 0 -20 -5 -23 -4 -3 -4 -16 1 -29 5 -13 6 -27 2
-30 -10 -11 -11 -36 -1 -36 6 0 5 -8 -1 -20 -8 -14 -8 -20 0 -20 8 0 8 -6 0
-20 -8 -14 -8 -20 0 -20 8 0 8 -6 0 -20 -8 -14 -8 -20 0 -20 8 0 8 -6 0 -20
-8 -14 -8 -20 0 -20 8 0 8 -6 0 -20 -8 -15 -8 -20 1 -20 8 0 9 -4 0 -13 -6 -8
-8 -17 -4 -20 3 -4 424 -7 935 -7 l928 0 0 178 c0 165 -7 221 -24 193 -4 -7
-14 -8 -24 -3 -21 10 -144 8 -160 -2 -7 -4 -12 -2 -12 5 0 8 -4 8 -15 -1 -9
-8 -15 -8 -15 -2 0 7 -10 8 -30 2 -20 -6 -30 -5 -30 2 0 6 -6 6 -15 -2 -12
-10 -15 -10 -15 0 0 10 -3 10 -15 0 -12 -10 -15 -10 -15 0 0 10 -3 10 -15 0
-11 -9 -15 -9 -15 -1 0 8 -5 9 -18 2 -10 -5 -24 -6 -31 -2 -13 8 -59 6 -68 -3
-3 -3 -14 -1 -24 5 -13 7 -19 6 -19 -1 0 -7 -5 -8 -12 -3 -18 11 -31 11 -45 0
-9 -6 -13 -5 -13 2 0 8 -6 9 -17 4 -21 -10 -65 -9 -82 1 -6 4 -11 3 -11 -1 0
-5 -9 -9 -20 -9 -11 0 -20 4 -20 9 0 5 -6 5 -13 -2 -10 -8 -17 -7 -25 1 -9 9
-12 9 -12 -1 0 -11 -3 -11 -15 -1 -12 10 -15 10 -15 0 0 -10 -3 -10 -15 0 -12
10 -15 10 -15 0 0 -10 -3 -10 -15 0 -12 10 -15 10 -15 0 0 -10 -3 -10 -15 0
-12 10 -15 10 -15 0 0 -10 -3 -10 -15 0 -12 10 -15 10 -15 0 0 -10 -3 -10 -15
0 -12 10 -15 10 -15 0 0 -10 -3 -10 -15 0 -12 10 -15 10 -15 0 0 -8 -4 -9 -12
-3 -15 11 -28 11 -45 0 -8 -5 -13 -4 -13 3 0 7 -7 8 -17 3 -21 -10 -65 -9 -82
1 -6 4 -11 4 -11 -1 0 -4 -11 -8 -25 -8 -14 0 -25 4 -25 9 0 5 -7 3 -15 -4
-12 -10 -15 -10 -15 0 0 10 -3 10 -15 0 -12 -10 -15 -10 -15 0 0 10 -3 10 -15
0 -11 -9 -15 -9 -15 -1 0 8 -5 9 -18 2 -10 -5 -24 -6 -31 -2 -13 8 -59 6 -68
-3 -3 -3 -14 -1 -24 5 -14 7 -19 6 -19 -2 0 -8 -4 -8 -13 -1 -8 7 -18 7 -27 2
-9 -5 -19 -5 -27 2 -9 7 -13 7 -13 -2 0 -10 -3 -10 -15 0 -11 9 -15 9 -15 1 0
-7 -5 -9 -12 -5 -6 4 -58 8 -115 8 -94 1 -104 -1 -99 -16z"/>
</g>
</svg>
