<?xml version="1.0" encoding="UTF-8" standalone="no"?>
<!-- Created with Inkscape (http://www.inkscape.org/) -->

<svg
   xmlns:dc="http://purl.org/dc/elements/1.1/"
   xmlns:cc="http://creativecommons.org/ns#"
   xmlns:rdf="http://www.w3.org/1999/02/22-rdf-syntax-ns#"
   xmlns:svg="http://www.w3.org/2000/svg"
   xmlns="http://www.w3.org/2000/svg"
   xmlns:sodipodi="http://sodipodi.sourceforge.net/DTD/sodipodi-0.dtd"
   xmlns:inkscape="http://www.inkscape.org/namespaces/inkscape"
   id="svg3336"
   version="1.1"
   inkscape:version="0.91 r13725"
   width="2716.875"
   height="1873.125"
   viewBox="0 0 2716.875 1873.125"
   sodipodi:docname="logo_larger_Vector.svg"
   inkscape:export-filename="vectorLogo"
   inkscape:export-xdpi="90"
   inkscape:export-ydpi="90">
  <metadata
     id="metadata3342">
    <rdf:RDF>
      <cc:Work
         rdf:about="">
        <dc:format>image/svg+xml</dc:format>
        <dc:type
           rdf:resource="http://purl.org/dc/dcmitype/StillImage" />
        <dc:title></dc:title>
      </cc:Work>
    </rdf:RDF>
  </metadata>
  <defs
     id="defs3340" />
  <sodipodi:namedview
     pagecolor="#ffffff"
     bordercolor="#666666"
     borderopacity="1"
     objecttolerance="10"
     gridtolerance="10"
     guidetolerance="10"
     inkscape:pageopacity="0"
     inkscape:pageshadow="2"
     inkscape:window-width="1920"
     inkscape:window-height="1017"
     id="namedview3338"
     showgrid="false"
     inkscape:zoom="0.22635969"
     inkscape:cx="1434.3129"
     inkscape:cy="1938.6923"
     inkscape:window-x="-8"
     inkscape:window-y="-8"
     inkscape:window-maximized="1"
     inkscape:current-layer="svg3336" />
  <path
     style="fill:#c75f3d;fill-opacity:1"
     d="m 547.30176,1188.8766 c -87.52,-7.0974 -132.0054,-11.6968 -147.67926,-15.2689 -7.4627,-1.7007 -29.47243,-5.6778 -48.91051,-8.8379 -50.45861,-8.2033 -63.71813,-11.1064 -107.13039,-23.4554 -87.89206,-25.0019 -120.79967,-38.0636 -156.371669,-62.0674 -19.006371,-12.8253 -67.142982,-51.3521 -76.664514,-61.3595 l -6.6266216,-6.9647 -0.6483898,-87.10795 c -0.5235614,-70.33793 -0.095501,-87.10798 2.2234566,-87.10798 8.1824598,0 20.2797048,5.93289 44.6608258,21.90314 29.834117,19.54211 62.350882,36.44801 87.039212,45.25285 45.25717,16.14051 147.56242,39.15089 198.05597,44.54653 17.00833,1.81748 40.36717,4.72274 51.90853,6.45613 101.02073,15.17229 97.13594,15.11204 974.1134,15.10703 876.7742,-0.005 877.6975,-0.0194 974.1133,-15.18206 11.5414,-1.81504 34.9002,-4.73615 51.9085,-6.49136 17.0084,-1.75522 40.3672,-5.18838 51.9086,-7.62925 132.3228,-27.98479 167.9144,-40.4408 229.6769,-80.37994 25.3206,-16.37388 38.7236,-23.23482 45.8801,-23.48612 2.1638,-0.076 2.7611,18.69499 2.7611,86.75839 l 0,86.85539 -9.4277,9.7828 c -12.3814,12.848 -53.3487,45.5622 -75.614,60.3812 -35.6083,23.6998 -66.4387,35.8883 -153.8719,60.8321 -36.3284,10.3642 -53.6003,14.1475 -104.5663,22.9048 -10.9339,1.8787 -34.2928,5.9034 -51.9085,8.9438 -45.7244,7.8918 -66.7599,10.2378 -91.7975,10.2378 -12.0938,0 -25.3839,0.9737 -29.5336,2.1638 -4.1497,1.1901 -28.993,3.6669 -55.2073,5.504 -41.2371,2.8898 -148.0115,3.2986 -792.0528,3.0321 l -744.39048,-0.3079 -61.84846,-5.0155 z"
     id="path4239"
     inkscape:connector-curvature="0" />
  <path
     style="fill:#b6431d;fill-opacity:1"
     d="m 632.56043,1533.0571 c -38.32449,-3.032 -123.08633,-11.0328 -165.56243,-15.6278 -16.32195,-1.7656 -43.03061,-6.4985 -59.35256,-10.5174 -16.32196,-4.0189 -36.00202,-8.2086 -43.73347,-9.3105 -19.38243,-2.7622 -82.33458,-21.5001 -121.84417,-36.2672 -18.04843,-6.7458 -33.85401,-12.2651 -35.12353,-12.2651 -1.26952,0 -15.33334,-6.1269 -31.25294,-13.6155 -57.57193,-27.0819 -90.414026,-51.8458 -137.148959,-103.4147 l -33.8696264,-37.3729 0,-107.3143 0,-107.3142 7.0285934,2.0976 c 9.575868,2.858 15.112401,7.0103 47.596332,35.6968 50.75025,44.8174 90.29186,63.585 203.09017,96.3924 59.77987,17.3869 151.44879,33.2758 228.03881,39.5256 32.64391,2.6638 64.97544,5.5666 71.84784,6.4507 15.23871,1.9603 193.14147,6.578 362.36304,9.4057 108.56827,1.8141 125.46477,2.7358 128.85757,7.0293 2.9755,3.7655 3.9048,34.5085 3.9048,129.1872 0,119.6411 -0.224,124.3657 -6.0423,127.4796 -7.3009,3.9072 -368.98481,3.6954 -418.79717,-0.2452 l 0,-10e-5 z"
     id="path4241"
     inkscape:connector-curvature="0" />
  <path
     style="fill:#b6431d;fill-opacity:1"
     d="m 1757.3228,1537.4273 c -71.2008,-0.8597 -83.3738,-1.7031 -88.2479,-6.1141 -5.273,-4.772 -5.6541,-13.3681 -5.6541,-127.5394 0,-112.7098 0.4337,-122.7976 5.4667,-127.149 4.5945,-3.9724 30.8834,-5.3316 164.7815,-8.5196 87.6231,-2.0862 187.4291,-3.6932 221.7911,-3.5709 34.362,0.1222 74.425,-1.1596 89.0289,-2.8485 14.6038,-1.6888 53.964,-5.2548 87.4669,-7.9244 33.503,-2.6695 75.6745,-7.633 93.7146,-11.0299 18.0401,-3.3969 41.2344,-7.6613 51.543,-9.4765 23.4474,-4.1288 67.3605,-14.337 85.905,-19.9698 59.3779,-18.0355 73.628,-22.7788 99.0621,-32.9735 37.9088,-15.1949 65.7167,-32.0573 95.9229,-58.1666 42.538,-36.7687 44.3435,-38.1412 53.0492,-40.3262 l 8.5011,-2.1336 -0.972,106.0644 -0.972,106.0644 -9.0861,11.9068 c -4.9973,6.5487 -26.0831,28.9887 -46.8573,49.8666 -52.2609,52.5221 -91.9374,76.1958 -179.9049,107.3437 -45.4922,16.1081 -106.6873,34.0672 -124.9528,36.6702 -7.7315,1.1019 -27.4848,5.3469 -43.8964,9.4335 -29.6071,7.3723 -45.4534,9.5225 -135.7232,18.4168 -96.1523,9.4738 -254.1116,13.9782 -419.9663,11.9756 z"
     id="path4243"
     inkscape:connector-curvature="0" />
  <path
     style="fill:#8f290e;fill-opacity:1"
     d="m 663.50283,1872.5715 c -0.73541,-0.7354 -37.52448,-5.0067 -81.75351,-9.4919 -88.06565,-8.9305 -138.62614,-17.703 -200.65635,-34.815 -71.37858,-19.6908 -154.41107,-52.4594 -202.46939,-79.904 -60.89164,-34.7734 -91.98987,-63.4226 -143.921895,-132.5877 l -30.0289404,-39.9938 0,-105.737 0,-105.7371 7.0285934,2.022 c 3.865726,1.1122 12.535735,8.5869 19.266684,16.6106 25.424768,30.3078 79.118318,80.6532 98.657498,92.5054 39.72836,24.0988 94.61094,48.7012 149.21823,66.8905 30.46556,10.1479 61.71767,19.4506 69.44912,20.6728 7.73145,1.2221 29.52009,6.2141 48.4192,11.0932 51.18325,13.2137 62.01725,14.8392 143.69569,21.5598 146.18831,12.0285 170.47813,13.1331 337.79607,15.3617 134.15667,1.7869 170.15217,3.1175 174.15297,6.4378 4.483,3.7206 5.0431,17.6452 5.0431,125.3764 0,66.655 -0.8533,123.4145 -1.8962,126.1321 -1.7009,4.4326 -21.909,4.9413 -196.27994,4.9413 -106.91113,0 -194.98556,-0.6017 -195.72093,-1.3371 z"
     id="path4245"
     inkscape:connector-curvature="0" />
  <path
     style="fill:#8f290e;fill-opacity:1"
     d="m 1665.3897,1866.88 c -1.036,-3.8657 -1.9028,-59.8258 -1.9262,-124.3557 -0.035,-96.4653 0.7459,-118.4053 4.3925,-123.3909 4.2332,-5.7876 9.3198,-6.078 111.6765,-6.3774 150.7476,-0.4409 300.8087,-7.2972 430.5567,-19.672 74.0092,-7.0588 145.6249,-22.9601 232.7245,-51.6735 109.9258,-36.2384 156.9887,-63.2472 214.7626,-123.2499 20.1877,-20.9665 36.7049,-39.4217 36.7049,-41.0118 0,-3.17 16.3364,-12.4228 21.9333,-12.4228 2.5356,0 3.2243,29.076 2.498,105.4786 l -1.0027,105.4786 -30.8386,40.56 c -41.2973,54.3157 -71.917,85.0197 -110.9528,111.2585 -35.785,24.0538 -59.5551,36.6994 -101.8665,54.1924 -76.3654,31.5722 -132.8969,48.9684 -208.117,64.0428 -52.9798,10.6174 -80.1399,14.1229 -145.1729,18.7374 -25.9355,1.8402 -51.9321,4.7158 -57.77,6.3901 -6.3761,1.8286 -87.5005,3.0442 -203.1666,3.0442 l -192.5521,0 -1.8836,-7.0286 z"
     id="path4247"
     inkscape:connector-curvature="0" />
  <path
     style="fill:#7192a0;fill-opacity:1"
     d="m 1330.9063,890.09579 c -3.015,-3.33152 -12.893,-30.3916 -21.9511,-60.13352 -9.0582,-29.74188 -21.4204,-65.32193 -27.4717,-79.06674 -36.7347,-83.43921 -45.147,-100.10423 -79.1227,-156.74388 -30.3203,-50.54586 -44.3876,-69.4476 -109.5013,-147.13293 -9.0398,-10.78509 -32.6866,-34.46379 -52.5484,-52.61935 -19.8619,-18.15555 -37.4966,-35.5962 -39.1882,-38.75699 -5.24278,-9.79629 -3.53466,-21.16931 3.953,-26.31953 121.0574,-83.26681 148.6925,-98.48984 278.0351,-153.15778 55.4431,-23.43358 84.4033,-26.04103 125.7185,-11.31916 49.8687,17.76974 146.7694,60.77074 174.6356,77.49689 49.0937,29.46752 137.1474,90.21844 140.0738,96.64115 4.5872,10.06784 0.053,15.89882 -46.1033,59.28407 -49.7524,46.76578 -112.3981,122.84452 -148.6013,180.46558 -34.7836,55.36164 -58.4704,101.86962 -92.3867,181.39728 -7.5079,17.60457 -27.9065,81.18654 -35.4241,110.41552 -5.604,21.78936 -11.5864,25.60673 -40.129,25.60673 -20.2825,0 -25.4513,-1.04404 -29.9882,-6.05734 z"
     id="path4249"
     inkscape:connector-curvature="0" />
  <path
     style="fill:#89a7b2;fill-opacity:1"
     d="m 649.74143,899.51508 c -46.38871,-1.13801 -86.80313,-3.21326 -89.8098,-4.61167 -13.35208,-6.21002 -4.16856,-29.65941 50.81984,-129.76442 14.57208,-26.5281 40.55187,-69.01507 57.73288,-94.41548 35.21859,-52.06718 101.39924,-134.2201 133.47363,-165.68663 11.74154,-11.519 27.27917,-27.85549 34.52807,-36.3033 20.915,-24.37417 89.69496,-81.763 97.99214,-81.763 6.91816,0 47.68841,34.25457 81.79631,68.72403 67.606,68.32272 75.6541,77.9075 127.2151,151.50523 33.9055,48.39653 81.9374,144.07202 106.3308,211.80179 9.1594,25.43164 17.5221,50.86971 18.5838,56.52908 3.7144,19.79979 5.0995,19.55392 -122.5545,21.75608 -198.99313,3.43286 -408.62556,4.37441 -496.10827,2.22829 z"
     id="path4251"
     inkscape:connector-curvature="0" />
  <path
     style="fill:#89a7b2;fill-opacity:1"
     d="m 1607.7123,897.95311 c -136.0536,-3.09343 -148.186,-3.80716 -151.9296,-8.93791 -5.1275,-7.02759 -2.9032,-17.27035 14.0518,-64.70991 44.0548,-123.26317 119.4421,-248.93372 196.4124,-327.41913 19.0628,-19.43811 34.6597,-36.59378 34.6597,-38.1237 0,-1.52992 6.5366,-7.77275 14.5258,-13.87295 7.9892,-6.10021 25.6275,-21.6275 39.1962,-34.50511 16.2895,-15.45978 27.1578,-23.41382 31.9924,-23.41382 17.3091,0 121.7381,98.76098 176.7158,167.12433 11.0536,13.74481 30.7528,37.64203 43.7762,53.10493 41.1279,48.8323 81.9095,114.13283 134.1785,214.85055 29.7085,57.24561 32.3639,67.08533 19.6245,72.71939 -15.6556,6.92372 -313.3522,8.63676 -553.2037,3.18333 z"
     id="path4253"
     inkscape:connector-curvature="0" />
  <path
     style="fill:#89a7b2;fill-opacity:1"
     d="m 1755.5672,288.22279 c -11.5705,-7.92257 -38.7941,-24.53475 -60.4967,-36.91595 -21.7026,-12.3812 -46.6787,-27.70427 -55.5025,-34.05125 -18.0888,-13.01131 -64.2565,-35.22729 -114.779,-55.23182 -53.582,-21.21599 -60.8292,-32.16521 -27.5482,-41.62038 32.5017,-9.23376 70.614,-17.65514 94.3322,-20.843818 37.77,-5.077823 271.3179,-7.665692 306.1342,-3.392175 41.3948,5.080983 95.4908,19.858953 135.0642,36.896963 47.6566,20.51811 48.3146,29.98485 3.1113,44.76666 -55.0426,17.99936 -167.1552,72.10866 -217.1598,104.80867 -16.8109,10.99327 -33.1646,19.98777 -36.3417,19.98777 -3.1771,0 -15.2434,-6.4821 -26.814,-14.40467 z"
     id="path4255"
     inkscape:connector-curvature="0" />
  <path
     style="fill:#89a7b2;fill-opacity:1"
     d="m 906.9757,284.92918 c -44.70517,-30.61656 -171.03883,-91.72853 -221.41168,-107.1045 -11.22338,-3.42586 -23.60689,-9.21077 -27.5189,-12.85537 -6.1726,-5.75064 -6.5721,-7.43101 -3.02249,-12.71291 10.59968,-15.77253 109.54501,-48.78634 166.52887,-55.563538 35.01887,-4.164862 187.6546,-4.268307 261.4273,-0.177177 44.4958,2.46755 64.4587,5.194045 102.5191,14.001845 52.2109,12.08247 60.176,15.16768 58.717,22.74364 -1.5108,7.84496 -17.0074,16.87731 -54.4022,31.709 -47.9697,19.02589 -94.0735,41.5257 -110.5461,53.94925 -7.7315,5.83101 -28.8172,18.89457 -46.8573,29.03012 -18.0401,10.13555 -45.04623,26.58444 -60.01369,36.5531 -14.96748,9.96865 -29.99548,18.12482 -33.39557,18.12482 -3.40009,0 -17.81104,-7.96422 -32.02434,-17.69828 z"
     id="path4257"
     inkscape:connector-curvature="0" />
  <path
     style="fill:#5e7889;fill-opacity:1"
     d="m 2245.8576,887.32546 c -2.5229,-3.87357 -10.9656,-21.80288 -18.7615,-39.84294 C 2197.4708,778.9279 2164.726,719.21 2122.6113,656.92954 2047.549,545.92537 2008.2108,500.75911 1891.8238,391.95055 c -24.4952,-22.9002 -44.5144,-44.07717 -44.5144,-47.08872 0,-8.19509 11.4076,-17.15865 37.4858,-29.45455 12.8858,-6.07565 31.863,-16.46649 42.1716,-23.09075 38.6516,-24.83733 95.7216,-50.03884 146.9509,-64.89193 27.4173,-7.94921 57.3548,-17.18001 66.5277,-20.51289 9.1729,-3.33289 21.3379,-6.05979 27.0334,-6.05979 12.1525,0 59.0993,23.32713 89.0509,44.24802 11.1677,7.8005 39.2821,25.14316 62.4764,38.53926 23.1944,13.39611 54.1202,34.42842 68.724,46.73849 14.6039,12.31007 45.5297,36.50973 68.7241,53.77703 62.1855,46.29471 157.9043,147.81739 199.7487,211.86034 27.2936,41.77306 36.8,61.0444 46.814,94.90176 10.6058,35.85832 12.4077,63.96101 5.0174,78.25224 -8.86,17.13349 -78.195,56.40208 -123.581,69.99148 -46.3895,13.88981 -125.3102,31.14198 -165.485,36.17523 -14.6038,1.82966 -48.3411,6.08277 -74.9716,9.4514 -26.6306,3.3686 -58.5741,6.90245 -70.9856,7.85294 -20.9438,1.60395 -22.8961,1.22182 -27.1535,-5.31465 z"
     id="path4259"
     inkscape:connector-curvature="0" />
  <path
     style="fill:#5e7889;fill-opacity:1"
     d="m 1311.4162,86.891357 c -28.3119,-9.23143 -97.3089,-23.342587 -146.6613,-29.994917 -10.3086,-1.389521 -28.583,-4.574274 -40.6097,-7.077225 -12.0267,-2.502951 -31.0039,-5.550305 -42.1715,-6.771896 -11.1677,-1.221592 -21.5285,-2.951619 -23.0241,-3.844504 -6.231,-3.720025 39.4049,-19.174075 67.2145,-22.761396 119.753,-15.44761219 338.655,-16.0125873 455.5593,-1.175775 40.0335,5.080828 52.9732,8.074239 72.2932,16.724085 l 13.2416,5.928438 -10.7176,1.682476 c -16.0446,2.518736 -101.7287,17.106741 -123.175,20.970971 -40.4565,7.289507 -50.9263,9.213492 -76.5336,14.064284 -14.6039,2.766408 -38.8735,9.102363 -53.9324,14.079906 -35.0016,11.569346 -51.4095,11.242123 -91.4834,-1.824447 z"
     id="path4261"
     inkscape:connector-curvature="0" />
  <path
     style="fill:#5e7889;fill-opacity:1"
     d="m 443.15261,892.31342 c -11.802,-0.922 -83.65366,-9.63976 -142.13378,-17.24511 C 266.77582,870.61503 169.39928,849.21446 137.09515,839.04262 91.729816,824.75811 27.78957,789.5522 15.597114,772.14503 4.6659286,756.53858 11.65347,700.48808 29.971661,656.83976 45.054973,620.89944 97.015231,548.55285 139.84196,503.86239 c 15.64129,-16.32195 37.45846,-39.90689 48.48262,-52.41096 19.89657,-22.56756 55.22662,-52.523 100.19898,-84.95614 12.88575,-9.29294 35.37725,-26.92376 49.98111,-39.17959 14.60385,-12.25583 45.52966,-33.26535 68.72402,-46.68783 23.19436,-13.42247 50.96037,-30.4924 61.70224,-37.93317 27.81793,-19.26916 74.1954,-41.84278 85.96595,-41.84278 5.48018,0 17.01969,2.70558 25.6434,6.0124 8.62371,3.30682 26.92523,9.09798 40.67003,12.86924 74.24857,20.37214 116.08435,37.99709 178.05771,75.01373 13.7448,8.20976 34.60132,19.49501 46.34785,25.07833 23.89735,11.35881 32.48941,20.82823 27.44716,30.24979 -3.5828,6.69451 -49.05746,50.56273 -80.89811,78.04031 -48.68123,42.0105 -121.27376,124.73154 -165.16017,188.20417 -68.48665,99.05184 -92.45887,141.19529 -135.81907,238.77157 -15.74158,35.42436 -18.81005,39.47601 -29.29015,38.67538 -3.4362,-0.2624 -11.87051,-0.91653 -18.74292,-1.45342 z"
     id="path4263"
     inkscape:connector-curvature="0" />
</svg>
